<?xml version="1.0" encoding="UTF-8"?>
<svg id="Capa_2" xmlns="http://www.w3.org/2000/svg" viewBox="0 0 159 71.19">
  <g id="Layer_1">
    <path d="M43.48,24.53l2.27-7.68,2.33,7.68h-4.6ZM54.81,31.24l-5.96-18.13c-.13-.4-.28-.66-.45-.79-.17-.12-.44-.19-.82-.19h-3.29c-.38,0-.66.07-.84.2-.18.13-.33.39-.44.77l-6.02,18.13c-.08.1-.11.28-.11.57,0,.44.27.66.8.66h2.47c.23,0,.41,0,.55-.03.14-.02.26-.07.34-.14s.16-.19.23-.34c.07-.15.14-.35.21-.6l.94-3.17h6.78l.96,3.11c.08.27.15.48.23.63.07.15.16.27.26.36.09.08.21.14.34.16.13.02.3.03.51.03h2.64c.53,0,.8-.22.8-.66,0-.13,0-.22-.01-.27-.01-.05-.04-.15-.1-.3M51.88,38.54h-1.9c-.49,0-.82.07-.98.21-.16.14-.24.43-.24.87v10.76l-5.62-10.79c-.23-.46-.45-.75-.67-.87s-.6-.19-1.15-.19h-1.76c-.49,0-.82.07-.98.21-.16.14-.24.43-.24.87v18.16c0,.44.07.73.23.87.15.14.47.21.96.21h1.93c.49,0,.82-.07.98-.21.16-.14.24-.43.24-.87v-10.79l5.62,10.82c.23.46.45.75.67.87.22.13.6.19,1.15.19h1.76c.49,0,.82-.07.98-.21.16-.14.24-.43.24-.87v-18.16c0-.44-.08-.73-.24-.87-.16-.14-.49-.21-.98-.21M61.31,36.82l4.9,4.92v24.81H4.43v-24.81l4.89-4.92c.72-.73.72-1.91,0-2.63l-4.89-4.92V4.45h61.79v24.81l-4.9,4.92c-.72.73-.72,1.91,0,2.64M70.64,0H0v31.4l4.08,4.1-4.08,4.1v31.4h70.64v-31.4l-4.08-4.1,4.08-4.1V0ZM31.4,54.64h-7.98l8.4-11.87c.13-.19.22-.34.26-.46.04-.11.06-.25.06-.4v-2.28c0-.44-.08-.73-.24-.87-.16-.14-.49-.21-.98-.21h-12.13c-.44,0-.72.08-.85.24-.13.16-.2.5-.2,1.02v1.71c0,.51.07.85.2,1.01.13.16.42.24.85.24h7.49l-8.29,11.87c-.21.27-.31.54-.31.8v2.34c0,.44.08.73.24.87.16.14.49.21.98.21h12.51c.44,0,.72-.08.86-.24.13-.16.2-.5.2-1.01v-1.71c0-.51-.07-.85-.2-1.01-.13-.16-.42-.25-.86-.25M27.69,24.36c0,.78-.05,1.43-.16,1.96-.1.52-.27.95-.51,1.27-.24.32-.55.55-.94.68-.39.13-.87.2-1.43.2h-2.33v-12.33h2.33c1.08,0,1.85.32,2.33.96.47.64.71,1.69.71,3.16v4.11ZM31.75,16.11c-.66-1.35-1.57-2.35-2.71-3-1.15-.65-2.59-.97-4.33-.97h-5.82c-.49,0-.82.07-.98.21-.16.14-.24.43-.24.87v18.16c0,.44.08.73.24.87.16.14.49.21.98.21h6.53c3.09,0,5.2-1.32,6.33-3.97.26-.61.45-1.22.55-1.84.11-.62.16-1.4.16-2.35v-3.85c0-1.08-.05-1.94-.16-2.57-.1-.63-.29-1.22-.55-1.77"/>
    <g>
      <path d="M104.53.2c6.17,0,12.34-.02,18.5.01-2.47,3.72-5.05,7.37-7.59,11.04-5.37,7.71-10.78,15.4-16.01,23.21,3.54,0,7.08,0,10.62,0,1.53,0,3.06-.03,4.59.06-.29.23-.63.37-.96.54-7.67,3.94-15.37,7.84-22.99,11.9-1.59-2.29-3.37-4.43-5.01-6.68-.62-.87-1.28-1.73-1.69-2.73-.95-2.23-.87-4.85.12-7.05.4-.89.99-1.67,1.52-2.49,6.22-9.32,12.69-18.47,18.89-27.81Z"/>
      <path d="M138.57.2c6.81-.01,13.62,0,20.43,0-2.64,3.82-5.34,7.59-7.99,11.4-10.55,15.08-20.97,30.24-31.46,45.36,3.53,0,7.07,0,10.6,0,2.31.02,4.62-.03,6.92.02-2.05,1.19-4.18,2.25-6.27,3.37-4.82,2.53-9.67,5.02-14.53,7.47-2.24,1.12-4.46,2.28-6.71,3.37-2.15-2.83-4.37-5.6-6.51-8.45-1.53-2.12-2.25-4.88-1.68-7.47.46-2.16,1.64-4.07,2.93-5.82,1.29-1.69,2.45-3.48,3.68-5.21,10.18-14.69,20.36-29.39,30.6-44.04Z"/>
    </g>
  </g>
</svg>